<svg xmlns="http://www.w3.org/2000/svg" width="35" height="35" viewBox="0 0 9.26 9.26"><path style="fill:#fdfdfd;stroke-width:.0180807;fill-opacity:1" d="M1.284 296.972a1.657 1.657 0 0 1-1.195-1.032c-.092-.264-.089-.142-.089-3.568 0-2.153.006-3.23.019-3.302a1.627 1.627 0 0 1 1.28-1.302c.2-.039 6.463-.038 6.66 0 .468.091.87.387 1.109.815.077.138.13.284.163.458.039.196.04 6.46 0 6.66a1.635 1.635 0 0 1-1.077 1.223c-.218.07-.308.075-1.205.075h-.874v-3.489h1.537V291.955H6.075v-.366c0-.347.003-.371.043-.457.051-.108.11-.166.194-.19.034-.01.332-.018.68-.018h.62v-1.54l-.755.008c-.846.008-.838.007-1.134.147-.508.24-.87.705-1.035 1.33-.042.157-.047.213-.055.629l-.008.456-.563.005-.563.005v1.537l.565.005.565.005V297l-1.614-.002c-1.252-.001-1.64-.007-1.731-.025z" transform="translate(0 -287.74)"/></svg>