<svg xmlns="http://www.w3.org/2000/svg" width="35" height="35" viewBox="0 0 9.26 9.26"><path style="fill:#fdfdfd;stroke-width:.01810723;fill-opacity:1" d="M2.06 296.987a2.316 2.316 0 0 1-1.385-.677 2.306 2.306 0 0 1-.66-1.366c-.014-.122-.018-.942-.013-2.693.006-2.49.007-2.52.044-2.673.118-.475.311-.829.63-1.151.334-.337.729-.55 1.222-.655.144-.03.31-.032 2.732-.032h2.58l.19.042a2.348 2.348 0 0 1 1.845 2.03c.014.12.018.939.014 2.683-.006 2.482-.007 2.511-.045 2.663a2.421 2.421 0 0 1-.205.562c-.328.655-.92 1.097-1.68 1.253-.124.026-5.055.038-5.269.014zm4.613-1.784c.18-.042.355-.144.5-.289a1 1 0 0 0 .28-.491c.035-.135.037-.207.037-2.055 0-1.847-.001-1.919-.036-2.054a1.054 1.054 0 0 0-.562-.695 1.417 1.417 0 0 0-.25-.093c-.065-.014-.703-.02-2.024-.02-2.127 0-2.023-.005-2.268.115-.142.07-.325.236-.42.382a1.367 1.367 0 0 0-.119.253l-.05.147v3.931l.05.147c.12.35.395.615.744.715.103.03.256.032 2.057.033 1.673.001 1.962-.003 2.061-.026zm-3.962-.504a.615.615 0 0 1-.397-.367c-.035-.096-.037-.137-.037-1.321v-1.222h.435c.239 0 .434.006.434.013 0 .007-.016.065-.036.127-.085.271-.077.647.02.938.084.253.182.409.378.606.343.344.707.487 1.193.467.243-.01.433-.057.626-.154a1.598 1.598 0 0 0 .805-1.9l-.034-.097h.886l-.005 1.236c-.005 1.228-.005 1.237-.045 1.323a.593.593 0 0 1-.385.347c-.087.026-.298.029-1.926.027-1.385 0-1.85-.007-1.912-.023zm1.711-1.337a1.115 1.115 0 0 1-.5-.273 1.006 1.006 0 0 1-.007-1.437.941.941 0 0 1 .721-.298c.437 0 .805.272.954.706.032.093.041.158.041.308a.9.9 0 0 1-.143.528 1.243 1.243 0 0 1-.382.365c-.192.104-.46.143-.684.101zm1.439-2.733v-.489h.977v.978h-.977z" transform="translate(0 -287.74)"/></svg>