<svg xmlns="http://www.w3.org/2000/svg" width="35" height="35" viewBox="0 0 9.26 9.26"><path style="fill:#fdfdfd;stroke-width:.01811954;fill-opacity:1" d="M1.45 296.987c-.655-.094-1.262-.66-1.418-1.322-.03-.127-.032-.337-.032-3.306 0-2.963.002-3.178.032-3.294.16-.627.685-1.149 1.3-1.294.127-.03.337-.032 3.307-.032 2.964 0 3.18.002 3.295.032a1.808 1.808 0 0 1 1.285 1.265l.041.153v6.359l-.041.152a1.72 1.72 0 0 1-.464.791c-.234.233-.48.379-.787.466l-.14.04-3.134.003c-1.725 0-3.184-.004-3.244-.013zm1.368-3.586v-2.102H1.423V295.502h1.395zm2.157.892c0-.706.008-1.261.018-1.334.023-.155.085-.274.221-.42a.677.677 0 0 1 .218-.164c.104-.048.13-.052.313-.052.169 0 .214.007.294.043a.69.69 0 0 1 .295.298c.099.223.097.196.104 1.566l.006 1.272H7.837v-1.294c0-.823-.007-1.363-.02-1.481-.07-.65-.355-1.112-.836-1.353a1.731 1.731 0 0 0-1.286-.074c-.24.088-.484.276-.652.506l-.06.081-.005-.294-.005-.294-.688.005-.688.005-.008 2.086c-.004 1.147-.003 2.091.003 2.097.006.006.32.01.697.01h.685v-1.208zm-2.66-3.575a.754.754 0 0 0 .536-.411c.043-.092.048-.125.047-.285 0-.226-.043-.346-.17-.486-.166-.18-.378-.258-.663-.244a.627.627 0 0 0-.305.074.678.678 0 0 0-.41.528.72.72 0 0 0 .565.824c.115.023.29.023.4 0z" transform="translate(0 -287.74)"/></svg>