<svg xmlns="http://www.w3.org/2000/svg" width="35" height="35" viewBox="0 0 9.26 9.26"><path style="fill:#fdfdfd;stroke-width:.01809181;fill-opacity:1" d="M1.49 296.983a1.888 1.888 0 0 1-.53-.17 1.714 1.714 0 0 1-.943-1.323c-.016-.12-.02-.949-.015-3.23l.005-3.067.04-.141c.112-.393.34-.734.643-.964.142-.107.43-.247.62-.3l.144-.042 3.075-.005c2.146-.004 3.122 0 3.23.014.204.027.462.117.65.227.165.097.44.352.54.5.146.217.252.49.291.751.027.182.027 6.09 0 6.272-.039.262-.146.537-.291.752-.074.108-.325.36-.434.433a2.35 2.35 0 0 1-.446.223c-.26.09-.216.089-3.458.086-1.667 0-3.07-.008-3.12-.015zm2.768-2.305a3.118 3.118 0 0 0 1.546-.72 3.403 3.403 0 0 0 1.068-1.858c.04-.203.077-.624.061-.705-.009-.045.006-.064.154-.19.145-.124.4-.412.4-.45 0-.009-.023-.004-.05.01a2.19 2.19 0 0 1-.439.128l-.135.025.063-.047c.169-.126.355-.374.406-.54.011-.039.008-.039-.084.012-.12.065-.391.169-.517.198l-.095.022-.104-.085c-.18-.148-.37-.23-.602-.263a1.147 1.147 0 0 0-1.212.75c-.056.16-.08.363-.058.51.01.069.018.126.016.128a3.434 3.434 0 0 1-.21-.02 3.21 3.21 0 0 1-1.958-.976c-.097-.1-.18-.177-.183-.173-.027.03-.086.174-.111.271a1.407 1.407 0 0 0-.001.566c.061.227.208.46.373.59.081.065.087.074.049.074-.07 0-.312-.067-.395-.11l-.077-.039.012.132c.041.437.345.82.768.968.114.04.117.042.066.056-.03.008-.14.015-.246.015h-.192l.017.045c.091.24.316.49.54.603.15.076.3.12.4.121.038 0 .072.007.077.015.013.021-.224.175-.396.256-.322.154-.623.22-.993.221h-.252l.089.056c.314.197.78.358 1.22.421.209.03.77.021.985-.017z" transform="translate(0 -287.74)"/></svg>