<svg xmlns="http://www.w3.org/2000/svg" width="26" height="18" viewBox="0 0 6.879 4.763"><path style="fill:#fbfbfb;stroke-width:.01322492;fill-opacity:1" d="M.345 296.975c-.074-.023-.184-.085-.184-.104 0-.007 2.362-1.975 2.412-2.01.013-.01.136.088.443.348l.425.36.422-.358c.232-.197.425-.358.429-.358.014 0 2.421 2.006 2.421 2.017 0 .024-.095.08-.18.105-.083.025-.14.026-3.097.025-2.9 0-3.016-.002-3.09-.025zM0 294.64c0-1.085.003-1.973.007-1.973s.169.136.366.302l1.64 1.38c.194.164.352.302.352.308 0 .008-1.767 1.469-2.321 1.92l-.044.035zm6.068 1.304c-.444-.365-.974-.802-1.18-.97a4.542 4.542 0 0 1-.368-.322c.003-.007.533-.458 1.18-1.003l1.174-.99.003.987c.002.542.002 1.43 0 1.974l-.003.987zm-4.27-2.21a183.785 183.785 0 0 1-1.634-1.365c-.006-.018.119-.089.198-.11.066-.02.372-.022 3.074-.022 2.063 0 3.021.004 3.067.014.074.016.21.089.21.113 0 .017-3.252 2.723-3.272 2.723-.006 0-.745-.609-1.642-1.353z" transform="translate(0 -292.237)"/></svg>