<svg xmlns="http://www.w3.org/2000/svg" width="344" height="132" viewBox="0 0 91.017 34.925"><path style="fill:#fc4b19;stroke-width:.26458335;fill-opacity:1" d="m-108.842 256.11-1.414-1.432 14.479-15.9 14.479-15.902h5.808l-1.854 2.05c-11.049 12.22-29.6 32.461-29.813 32.529-.15.047-.908-.558-1.685-1.345zm35.718-9.525-1.41-1.428 10.132-11.14 10.132-11.14h5.824l-.668.727c-.367.4-5.513 6.056-11.436 12.568s-10.858 11.84-10.966 11.84c-.11 0-.832-.642-1.608-1.427zm35.98-7.941-1.412-1.43 6.535-7.17 6.535-7.168h5.853l-1.165 1.257c-.64.691-4.175 4.56-7.853 8.6-3.68 4.037-6.777 7.341-6.884 7.341-.108 0-.832-.643-1.609-1.43z" transform="translate(110.722 -222.876)"/><path style="fill:#f6f8fa;stroke-width:.26458335;fill-opacity:1" d="m-91.613 251.238-1.661-1.506 12.227-13.428 12.227-13.428h6.086l-.671.728c-.37.4-6.182 6.8-12.916 14.221-6.735 7.422-12.557 13.815-12.938 14.206l-.693.713zm37.304-9.79-1.663-1.506 7.72-8.467 7.72-8.466 3.044-.075c2.885-.071 3.026-.05 2.675.395-.446.566-16.155 17.9-17.14 18.913l-.693.712z" transform="translate(110.722 -222.876)"/></svg>