<svg xmlns="http://www.w3.org/2000/svg" width="19" height="25" viewBox="0 0 5.027 6.615"><path style="fill:#fbfbfb;stroke-width:.01325725;fill-opacity:1" d="M2.424 296.986c-.05-.022-.212-.192-.465-.491-1.123-1.328-1.802-2.518-1.938-3.398a2.471 2.471 0 0 1 .041-.871 2.42 2.42 0 0 1 1.071-1.448 2.628 2.628 0 0 1 2.647-.068c.63.352 1.064.935 1.208 1.619.037.177.051.54.027.712-.109.798-.66 1.841-1.595 3.026-.307.388-.721.863-.792.907a.28.28 0 0 1-.204.012zm.389-3.035c.44-.1.799-.432.926-.859.027-.088.031-.134.032-.31 0-.178-.004-.222-.031-.31a1.202 1.202 0 0 0-.35-.557c-.605-.565-1.626-.4-2.004.323-.108.207-.13.298-.129.544 0 .242.023.337.122.53.187.36.553.609.978.666.116.016.323.003.456-.027z" transform="translate(0 -290.385)"/></svg>