<svg xmlns="http://www.w3.org/2000/svg" width="44" height="30" viewBox="0 0 11.642 7.937"><path style="fill:#fd4d1f;fill-opacity:.94117647;stroke-width:.02538214" d="M-179.305 193.38a.405.405 0 0 1 .003-.692c.086-.05.108-.05 2.924-.05s2.839 0 2.924.05a.403.403 0 0 1 0 .692c-.085.05-.108.051-2.927.05-2.823 0-2.841 0-2.924-.05zm0-3.573a.405.405 0 0 1 .003-.69c.086-.052.093-.052 4.794-.052s4.708 0 4.794.051a.403.403 0 0 1 0 .692c-.086.05-.093.051-4.797.05h-4.71zm0-3.572a.405.405 0 0 1 .003-.691l.086-.05h11.078l.086.05a.403.403 0 0 1 0 .692l-.086.05h-11.084z" transform="translate(179.497 -185.493)"/></svg>