<svg xmlns="http://www.w3.org/2000/svg" width="25" height="25" viewBox="0 0 6.615 6.615"><path style="fill:#fbfbfb;stroke-width:.01292159;fill-opacity:1" d="M4.482 296.997a7.138 7.138 0 0 0-.13-.02c-.527-.074-1.402-.5-2.04-.992a7.953 7.953 0 0 1-1.074-1.023c-.413-.496-.747-1.02-.95-1.493a6.165 6.165 0 0 1-.21-.568c-.1-.364-.104-.758-.012-.973.047-.111.136-.215.446-.522.37-.366.392-.38.586-.38.205 0 .199-.005.744.541.424.425.47.476.51.558.04.08.044.101.044.2 0 .177-.02.208-.378.57-.257.262-.3.311-.3.344 0 .059.13.313.253.493.249.364.643.785 1.032 1.102.236.192.674.451.764.451.027 0 .093-.059.332-.297.359-.36.393-.381.583-.381.193 0 .202.006.75.555.544.542.542.54.542.737a.352.352 0 0 1-.042.205c-.037.078-.079.126-.342.392-.338.342-.43.415-.584.465-.09.03-.13.035-.298.038a2.69 2.69 0 0 1-.226-.002zm.278-3.344a2.325 2.325 0 0 0-.172-.494 1.78 1.78 0 0 0-1.293-.932c-.023-.005-.028-.013-.023-.035.004-.015.02-.127.035-.248.016-.12.034-.225.04-.232.016-.017.214.025.392.084.663.22 1.186.724 1.427 1.373.06.163.121.398.107.412a6.668 6.668 0 0 1-.5.089c-.004 0-.01-.007-.013-.017zm1.337-.079-.026-.13a3.254 3.254 0 0 0-.587-1.28 3.823 3.823 0 0 0-.628-.629 3.183 3.183 0 0 0-1.373-.606.643.643 0 0 1-.137-.034c-.01-.01.048-.493.06-.508.008-.01.22.027.398.07.302.075.586.184.878.341.634.34 1.174.877 1.53 1.526.094.17.124.236.203.44.095.249.166.496.192.673l.008.058-.237.043c-.226.04-.282.047-.282.036z" transform="translate(0 -290.385)"/></svg>